<svg width="291" height="95" viewBox="0 0 291 95" fill="none" xmlns="http://www.w3.org/2000/svg">
<mask id="mask0_42_157" style="mask-type:luminance" maskUnits="userSpaceOnUse" x="0" y="0" width="85" height="95">
<path d="M0.567749 0.182129H84.9427V94.4842H0.567749V0.182129Z" fill="white"/>
</mask>
<g mask="url(#mask0_42_157)">
<path d="M47.6407 94.4061C21.6823 94.4061 0.567749 73.2915 0.567749 47.3332C0.567749 21.38 21.6823 0.260254 47.6407 0.260254C60.724 0.260254 73.323 5.77067 82.2084 15.38L84.6146 17.9842L66.3907 34.8436L63.9792 32.2394C59.7188 27.63 53.9115 25.0884 47.6407 25.0884C35.375 25.0884 25.3959 35.0675 25.3959 47.3332C25.3959 53.9686 28.3386 60.2134 33.4688 64.4686L28.9427 69.9269C22.1823 64.3228 18.3021 56.0884 18.3021 47.3332C18.3021 31.1561 31.4636 17.9946 47.6407 17.9946C54.7188 17.9946 61.3386 20.4478 66.625 24.9582L74.474 17.703C67.1615 11.0884 57.5677 7.354 47.6407 7.354C25.599 7.354 7.6615 25.2863 7.6615 47.3332C7.6615 69.38 25.599 87.3123 47.6407 87.3123C56.0573 87.3123 64.1146 84.7238 70.9323 79.828C72.7605 78.5207 74.4896 77.0415 76.0834 75.4269L81.1302 80.4113C79.2605 82.3071 77.2188 84.0519 75.0677 85.5936C67.0365 91.3592 57.5521 94.4061 47.6407 94.4061Z" fill="#81CC2A"/>
</g>
<mask id="mask1_42_157" style="mask-type:luminance" maskUnits="userSpaceOnUse" x="28" y="28" width="40" height="39">
<path d="M28.5729 28.4429H67.2864V66.1616H28.5729V28.4429Z" fill="white"/>
</mask>
<g mask="url(#mask1_42_157)">
<path fill-rule="evenodd" clip-rule="evenodd" d="M54.5677 65.1408C54.3646 65.1408 54.3542 65.1096 54.2187 65.0783L53.8594 64.8908L53.5052 64.4221C53.4896 64.37 53.4792 64.3648 53.4687 64.3231C53.4427 64.245 53.4479 64.1721 53.4323 64.0835C53.401 63.8387 53.4687 63.6304 53.5781 63.4273C53.599 63.3908 53.6667 63.3075 53.6927 63.271L53.7344 63.2242C53.7396 63.2242 53.7396 63.2189 53.7448 63.2189L53.8021 63.1564C53.9375 63.0262 54.25 62.8752 54.3958 62.8752C54.6927 62.8752 54.7969 62.8596 55.0573 62.9898C55.0729 62.995 55.0781 62.995 55.0937 63.0054C55.1979 63.0523 55.3073 63.1617 55.3854 63.2398C55.4115 63.2658 55.4271 63.2762 55.4531 63.3127C55.5208 63.4117 55.5469 63.4533 55.5937 63.5627C55.7396 63.9117 55.7083 64.3596 55.474 64.6564L55.4062 64.7294C55.2708 64.8804 55.1146 65.021 54.9115 65.0731C54.8177 65.1044 54.6667 65.1408 54.5625 65.1408H54.5677ZM37.4844 63.1877C37.4844 63.0887 37.5156 63.0367 37.5365 62.9585C37.5521 62.8856 37.5469 62.9169 37.5729 62.8596C37.6354 62.7294 37.6823 62.6304 37.8021 62.5054L37.9844 62.3596C38.1354 62.2606 38.0885 62.2919 38.2448 62.2294C38.2917 62.2137 38.2917 62.2033 38.3333 62.1929C38.724 62.1044 39.151 62.2242 39.4323 62.5106C39.5729 62.6512 39.5729 62.6929 39.6562 62.8387C39.6927 62.896 39.6719 62.8648 39.6927 62.9377C39.7031 62.9846 39.7135 62.9898 39.724 63.0419C39.7656 63.1773 39.7604 63.4169 39.724 63.5523L39.5937 63.87C39.474 64.0575 39.4323 64.0939 39.2552 64.2346C39.1146 64.3335 39.1146 64.3075 39.0052 64.3596C38.9948 64.3596 38.974 64.3752 38.9583 64.3804C38.9323 64.3908 38.8646 64.4012 38.8437 64.4064C38.7604 64.4169 38.6927 64.4429 38.6094 64.4429C38.4219 64.4429 38.1042 64.3387 37.9427 64.1981C37.9375 64.1981 37.9375 64.1929 37.9323 64.1929C37.9323 64.1877 37.9271 64.1877 37.9271 64.1825L37.7604 64.0262C37.651 63.9064 37.6354 63.8439 37.5781 63.7398C37.4844 63.5523 37.4896 63.4012 37.4896 63.1929L37.4844 63.1877ZM48.151 62.7242C48.151 62.6512 48.1615 62.6356 48.1875 62.5887C48.3698 62.2137 48.651 62.0314 49.0885 62.1252C49.1875 62.146 49.2344 62.1773 49.3229 62.2346L49.4323 62.3283C49.5573 62.4585 49.6406 62.6669 49.6406 62.8439C49.6406 63.021 49.5521 63.2294 49.4323 63.3492L49.3229 63.4481C49.1042 63.6096 48.7813 63.6304 48.5521 63.5054C48.474 63.4637 48.4115 63.4325 48.3594 63.37C48.1615 63.1304 48.151 63.0002 48.151 62.7242ZM45.2448 60.8544C45.2448 60.7189 45.3021 60.6304 45.3802 60.5575C45.5208 60.4273 45.724 60.4585 45.8646 60.5783C45.9062 60.6148 45.9167 60.6304 45.9427 60.6877C46.0885 60.9898 45.7552 61.2867 45.5156 61.1877C45.5052 61.1825 45.4896 61.1773 45.4792 61.1721C45.4062 61.1408 45.4062 61.146 45.3594 61.0887C45.3073 61.0262 45.25 60.9481 45.25 60.8544H45.2448ZM61.3698 55.995C61.3698 55.9273 61.375 55.8908 61.401 55.8387C61.4844 55.6408 61.4531 55.6773 61.6198 55.4898L61.7187 55.4012C61.8802 55.2919 62.0156 55.2554 62.2083 55.2554C62.5365 55.2554 62.849 55.4846 62.9583 55.745C63.0625 56.0158 63.0573 56.1669 62.9531 56.4273C62.8177 56.7762 62.4062 56.9846 62.0052 56.9012C61.8958 56.8752 61.7917 56.8179 61.7031 56.7554L61.6719 56.7346C61.6719 56.7294 61.6458 56.7137 61.6406 56.7137L61.625 56.6981C61.6146 56.6877 61.5937 56.6564 61.5781 56.6408L61.4531 56.4742C61.3594 56.2971 61.3646 56.1877 61.3646 55.995H61.3698ZM29.9479 55.4117C29.9479 55.2346 30.0937 54.995 30.2448 54.8856C30.3646 54.7971 30.4167 54.7762 30.5469 54.7554C30.599 54.7502 30.6302 54.7242 30.6875 54.7242L30.9896 54.7971C31.0781 54.8387 31.1302 54.87 31.2031 54.9429C31.3854 55.1148 31.4896 55.4117 31.4219 55.6512C31.401 55.7137 31.4219 55.6512 31.3958 55.7137C31.3854 55.7398 31.3802 55.7554 31.375 55.7762C31.3437 55.8492 31.2969 55.9169 31.2448 55.9742C31.1563 56.0835 30.9271 56.2189 30.8229 56.2189C30.6354 56.2189 30.5781 56.2398 30.4479 56.1825L30.4219 56.1721C30.3177 56.1304 30.2344 56.0835 30.1562 55.995C29.9896 55.7867 29.9479 55.7189 29.9479 55.4117ZM40.2656 41.3544C40.2656 41.1825 40.3073 40.9898 40.3906 40.8439C40.4687 40.7033 40.5417 40.5887 40.651 40.4742C40.8698 40.2606 41.2135 40.1044 41.5521 40.1044H52.9531C53.0833 40.1044 53.276 40.1408 53.3854 40.1877L53.6458 40.3179C53.6458 40.3231 53.651 40.3231 53.6562 40.3283L53.8125 40.4481L54.099 40.8283C54.2187 41.0679 54.2396 41.2294 54.2396 41.5106V52.7189C54.2396 52.9273 54.2187 53.1044 54.1354 53.2867L53.9531 53.5835C53.9479 53.5939 53.9479 53.5939 53.9427 53.6044C53.9375 53.6044 53.9271 53.6148 53.9271 53.62L53.7969 53.7502C53.6927 53.8439 53.6094 53.9012 53.4792 53.9637L53.2344 54.0471C53.1458 54.0627 53.0677 54.0939 52.9531 54.0939H41.5208C41.4062 54.0939 41.2187 54.0471 41.125 54.0054L41.0156 53.9637C40.9792 53.9429 40.9948 53.9481 40.9583 53.9325L40.6302 53.6929L40.625 53.6877L40.599 53.6617C40.5885 53.6512 40.5677 53.62 40.5625 53.6096C40.3854 53.3752 40.2656 53.1721 40.2656 52.8283V41.3544ZM33.5156 49.0783C33.4375 49.0783 33.3125 49.0262 33.2552 48.9585C32.9531 48.5939 33.4479 48.1252 33.7812 48.4533C33.849 48.521 33.8906 48.5992 33.8854 48.7137C33.8854 48.745 33.875 48.8439 33.8594 48.87C33.8073 48.9794 33.6667 49.0783 33.5156 49.0783ZM62.8125 48.6825C62.8125 48.6252 62.8177 48.6356 62.8437 48.5783L62.8542 48.5575C62.974 48.3179 63.276 48.271 63.4375 48.4481C63.4635 48.4742 63.5 48.5262 63.5156 48.5575C63.526 48.5887 63.5521 48.6721 63.5521 48.6981C63.5573 48.9273 63.2969 49.1773 63.0312 49.0419C62.9115 48.9794 62.8802 48.9064 62.8385 48.8231C62.8021 48.7502 62.8073 48.7971 62.8073 48.6825H62.8125ZM29.5677 45.3856C29.5677 45.3439 29.6198 45.1096 29.651 45.0419L29.6875 44.9533C29.7344 44.8439 29.8281 44.7294 29.9062 44.646L30.1771 44.4377C30.1875 44.4325 30.2031 44.4221 30.2083 44.4169C30.3177 44.3648 30.5208 44.3075 30.6302 44.3075C30.8906 44.3075 30.7656 44.2919 30.9479 44.3387C31.125 44.3804 31.2292 44.4117 31.4062 44.5471C31.4531 44.5835 31.4896 44.6252 31.5365 44.6721C31.5521 44.6877 31.5521 44.6877 31.5677 44.7085L31.6562 44.8231C31.8125 45.0471 31.8906 45.4637 31.7969 45.745C31.724 45.9481 31.6719 46.0835 31.4844 46.2554L31.4375 46.2971C31.4271 46.3075 31.4167 46.3127 31.401 46.3283C31.375 46.3492 31.3542 46.3648 31.3229 46.3856C31.1719 46.5002 30.8698 46.5835 30.6875 46.5731C30.6458 46.5679 30.4531 46.5471 30.4219 46.5367C30.0677 46.4117 29.8021 46.2189 29.6615 45.8544C29.6302 45.771 29.6354 45.8335 29.6094 45.7033C29.5729 45.5158 29.5677 45.5887 29.5677 45.3804V45.3856ZM64.599 44.3544C64.4271 44.2762 64.2552 44.12 64.151 43.9585C63.9687 43.6721 63.8958 43.2658 64.0312 42.9689C64.0677 42.8908 64.0469 42.896 64.1146 42.7814L64.2292 42.62C64.2552 42.5939 64.2656 42.5731 64.2917 42.5471L64.5365 42.3596C64.5781 42.3387 64.599 42.3335 64.6302 42.3179C64.6615 42.3023 64.6875 42.2919 64.7292 42.2762C64.7708 42.2554 64.7656 42.2502 64.8281 42.2398C65.0521 42.1981 65.2708 42.2033 65.4792 42.2814C65.6927 42.3596 65.724 42.3856 65.9115 42.5523C65.9896 42.6252 66.1146 42.8127 66.1406 42.8908C66.2396 43.1877 66.2812 43.4585 66.151 43.7554L66.0833 43.9064C66.0521 43.9689 66.0729 43.9377 66.0312 43.9898C65.9271 44.1096 65.8854 44.1721 65.7448 44.271C65.6979 44.3075 65.7083 44.2971 65.6615 44.3231L65.6354 44.3387C65.6354 44.3387 65.3854 44.4846 65.0469 44.4846L64.599 44.3596V44.3544ZM60.375 42.1252C60.375 42.0679 60.3802 42.0419 60.401 42.0002C60.4062 42.0002 60.4323 41.9533 60.4375 41.9481C60.4531 41.9221 60.4479 41.9325 60.4687 41.9117C60.6042 41.7867 60.6302 41.7971 60.7812 41.7971C60.9427 41.7971 61.1927 42.0575 61.0625 42.3179C61.0573 42.3231 61.0365 42.3648 61.026 42.37C60.8958 42.5471 60.6823 42.5731 60.4948 42.4325L60.4115 42.3387C60.3594 42.2554 60.3698 42.2606 60.3698 42.1304L60.375 42.1252ZM32.7448 38.0054C32.6354 38.0054 32.6042 37.9846 32.5156 37.9637L32.3177 37.8856C32.2135 37.8387 32.1042 37.7606 32.026 37.6773L31.8177 37.4221C31.7969 37.3908 31.7917 37.3648 31.776 37.3283C31.7604 37.2815 31.75 37.2762 31.7396 37.2294C31.6719 36.9533 31.625 36.7502 31.7656 36.4377C31.8125 36.3335 31.8385 36.271 31.9167 36.1773C31.9323 36.1617 31.9375 36.1565 31.9479 36.1408C32.2865 35.7815 32.7656 35.6044 33.2448 35.8231C33.276 35.8387 33.25 35.8283 33.2865 35.8492C33.474 35.9273 33.6458 36.0731 33.7552 36.2398C33.7813 36.2814 33.7917 36.2919 33.8073 36.3231C33.9219 36.5471 34 36.87 33.9271 37.1356C33.8854 37.271 33.8333 37.3804 33.7552 37.5002C33.6771 37.6252 33.5417 37.7502 33.4167 37.8283C33.4115 37.8335 33.4062 37.8335 33.4062 37.8335C33.1771 37.9794 33.0052 38.0054 32.7448 38.0054ZM45.5729 35.0731C45.5156 35.0731 45.4792 35.0419 45.4427 35.0158L45.3594 34.9429C45.2656 34.8283 45.2396 34.6565 45.3177 34.5262L45.375 34.4481C45.6719 34.1617 46.1198 34.5106 45.974 34.8544L45.9375 34.9064C45.8125 35.0575 45.75 35.0731 45.5729 35.0731ZM41.6094 32.2919C41.6094 32.2137 41.6615 32.0523 41.6979 32.0002C41.8229 31.7919 41.8802 31.7606 42.0729 31.6617C42.2187 31.5835 42.5 31.5887 42.6615 31.6669C42.7552 31.7137 42.7969 31.7398 42.8646 31.8075L43.0156 32.0002L43.1042 32.2606C43.1042 32.4221 43.1042 32.5575 43.0156 32.7033L42.9115 32.8387C42.7969 32.9637 42.776 32.9742 42.6302 33.0419C42.5625 33.0679 42.5729 33.0731 42.4844 33.0835C42.3646 33.0939 42.2969 33.1044 42.1667 33.0783C42.0104 33.0419 41.8177 32.896 41.724 32.745C41.724 32.7398 41.7187 32.7346 41.7187 32.7346L41.7083 32.7137C41.625 32.5627 41.6094 32.4794 41.6094 32.2971V32.2919ZM55.2396 31.5679C55.2396 31.3752 55.276 31.2762 55.3333 31.1148C55.3698 31.021 55.4687 30.896 55.5417 30.8231L55.625 30.7346C55.9375 30.4377 56.474 30.37 56.8802 30.5835C56.9062 30.5939 56.9531 30.6252 56.974 30.6408L57.1979 30.8283C57.2135 30.8544 57.2187 30.8544 57.2396 30.8752L57.3854 31.0939L57.4792 31.4221C57.526 31.745 57.4948 31.8492 57.3542 32.1408C57.0469 32.7762 56.0312 32.9742 55.4844 32.3023L55.3333 32.0575C55.2604 31.9117 55.2396 31.7658 55.2396 31.5679ZM48.0312 29.9898C48.0312 29.9169 48.0521 29.896 48.0677 29.8387C48.1302 29.6669 48.2187 29.5054 48.3854 29.396C48.4115 29.3804 48.4219 29.3752 48.4479 29.3596C48.724 29.1825 49.1042 29.2137 49.3802 29.4325L49.4583 29.5054C49.4792 29.5262 49.4792 29.5262 49.5 29.5471L49.5937 29.6825C49.6042 29.7033 49.6042 29.7033 49.6146 29.7242C49.7135 29.9273 49.7187 30.0315 49.6771 30.271C49.6406 30.4637 49.5208 30.62 49.3802 30.7294C49.3437 30.7554 49.3281 30.7762 49.2917 30.7971C49.0365 30.9533 48.6823 30.9481 48.4375 30.7919L48.3646 30.7398C48.3021 30.6877 48.2656 30.6617 48.2187 30.5939C48.0365 30.37 48.0365 30.2346 48.0365 29.9898H48.0312ZM49.1615 31.7554C49.1615 31.6877 49.3698 31.646 49.4271 31.6304C49.5729 31.5835 49.6771 31.5158 49.8021 31.4377C49.9687 31.3335 50.125 31.1669 50.2292 31.0054L50.2604 30.9533C50.3073 30.87 50.3646 30.8023 50.3906 30.7033L50.474 30.4064C50.5365 30.1564 50.5208 29.9689 50.4687 29.7189C50.4427 29.6044 50.4115 29.4898 50.3542 29.3856C50.3542 29.3804 50.349 29.3752 50.349 29.3752L50.2969 29.271C50.2812 29.2502 50.276 29.2346 50.2552 29.2085L49.75 28.7033C49.7187 28.6877 49.7187 28.6825 49.6875 28.6617L49.5469 28.5939C49.3281 28.5002 49.3229 28.4898 49.0677 28.4533C48.875 28.4273 48.7344 28.4429 48.5312 28.4689C48.3698 28.4846 48.2135 28.5627 48.0781 28.6356L47.9479 28.7085C47.8437 28.7762 47.7656 28.8544 47.6771 28.9377C47.5156 29.0887 47.3958 29.2971 47.3177 29.5002C47.224 29.7294 47.1719 30.2398 47.2552 30.4742C47.3385 30.7085 47.4167 30.9533 47.5937 31.1356C47.5937 31.1408 47.599 31.1408 47.599 31.146C47.6146 31.1617 47.625 31.1773 47.6406 31.1929L47.9427 31.4533C47.9635 31.4689 47.974 31.4794 47.9948 31.4898L48.1771 31.5835C48.2135 31.5992 48.1979 31.5992 48.2448 31.6148C48.2656 31.6252 48.2865 31.6304 48.3125 31.6408L48.599 31.7137C48.6042 31.7502 48.6146 31.7502 48.6146 31.7971V38.1304C48.6146 38.245 48.3177 38.1929 48.2396 38.1929C47.526 38.2189 46.7812 38.1929 46.0729 38.1929C45.8646 38.1929 45.901 38.2242 45.901 37.9273V35.6825C46.0104 35.6044 46.1615 35.5627 46.2708 35.4689C46.2708 35.4637 46.2865 35.4533 46.2865 35.4533L46.474 35.2242C46.6146 35.0106 46.651 34.6148 46.5677 34.3908C46.4844 34.1773 46.3177 33.9481 46.099 33.8439C45.776 33.6877 45.5573 33.6877 45.2292 33.8283C44.9948 33.9273 44.8125 34.1148 44.7135 34.3596C44.6771 34.4533 44.6615 34.521 44.6615 34.6304C44.6615 34.9898 44.7344 35.2346 44.9948 35.4637L45.0937 35.5367C45.2292 35.6304 45.349 35.5835 45.349 35.8127V37.9064C45.349 38.021 45.3333 38.0575 45.3333 38.1669C45.2708 38.1825 45.276 38.2033 45.2135 38.2033H42.7552C42.6927 38.2033 42.6562 38.1877 42.6198 38.1669C42.6094 38.1304 42.6042 38.1252 42.6042 38.0835V33.995C42.6042 33.8335 42.9219 33.8596 43.1875 33.6773L43.2917 33.6044C43.4792 33.4742 43.6146 33.2815 43.7292 33.0887C43.75 33.0575 43.75 33.0679 43.7656 33.0367C43.776 33.0054 43.7812 32.9898 43.7917 32.9585C43.8021 32.9325 43.8073 32.9169 43.8177 32.9012C43.9635 32.5262 43.9323 32.0315 43.7604 31.6721C43.75 31.6565 43.7396 31.6408 43.7292 31.6148L43.5781 31.3908C43.4635 31.2398 43.3125 31.1096 43.151 31.0106L43.0625 30.9637C42.6667 30.7815 42.2604 30.7294 41.8437 30.8856C41.5365 31.0002 41.2708 31.1773 41.0833 31.4481C41.0573 31.4846 41.0208 31.5262 41.0052 31.5575L40.9427 31.6877C40.9323 31.7189 40.9271 31.7346 40.9167 31.7606L40.8437 31.9637C40.7552 32.2502 40.776 32.6617 40.9062 32.9273L40.9896 33.1044C41.0312 33.1929 41.1094 33.2815 41.1927 33.3908C41.2552 33.4689 41.3229 33.521 41.401 33.5835L41.5729 33.7033C41.6406 33.745 41.7187 33.7867 41.8073 33.8127L42.0573 33.8908L42.0677 37.6408C42.0417 37.8023 42.0573 37.9898 42.0573 38.1617C41.9687 38.2033 41.9531 38.1877 41.8646 38.1825C41.7708 38.1721 41.7396 38.1981 41.6458 38.1981C41.4271 38.1981 41.1354 38.1721 40.9271 38.1981C40.8542 38.2085 40.8073 38.2346 40.7344 38.2502L40.3646 38.3387C40.3229 38.3544 40.3385 38.3544 40.276 38.3752L39.5833 38.745C39.3698 38.8856 39.2031 39.0679 39.0312 39.2554L39 39.2919C38.9896 39.2971 38.9844 39.3075 38.974 39.3179C38.9375 39.3648 38.9115 39.4064 38.875 39.4585L38.6146 39.9169C38.5417 40.0575 38.3958 40.4846 38.3854 40.6356C38.375 40.7762 38.349 40.9221 38.349 41.0627C38.349 41.2242 38.349 41.3856 38.349 41.5471C38.349 41.6721 38.3802 41.9221 38.2656 41.9221H36.4271C36.3073 41.9221 36.1198 41.8544 36.0156 41.8023L35.8646 41.6929C35.8437 41.6773 35.8385 41.6721 35.8177 41.6512C35.8021 41.6356 35.7865 41.62 35.776 41.6096C35.7031 41.5419 35.651 41.4429 35.599 41.3544L34.2865 39.0054C34.276 38.9846 34.2656 38.9689 34.2604 38.9533C34.25 38.9377 34.2396 38.9169 34.2292 38.896C34.2031 38.8492 34.1094 38.7137 34.1094 38.6773C34.1094 38.5731 34.099 38.5887 34.1719 38.5367L34.6146 38.0523C34.625 38.0315 34.6302 38.0262 34.6406 38.0106L34.849 37.5835C34.8646 37.5419 34.8646 37.5002 34.8802 37.4585C35.0052 37.0575 34.974 36.5835 34.849 36.1825C34.8281 36.1148 34.8385 36.1565 34.8177 36.1096L34.7292 35.8908C34.7083 35.8544 34.6771 35.8023 34.651 35.7658L34.4896 35.5314C34.3906 35.396 34.2187 35.2242 34.0729 35.1408L33.6979 34.9169C33.6458 34.8908 33.6042 34.8856 33.5469 34.8596C33.474 34.8335 33.4531 34.8387 33.3854 34.8179C33.3281 34.7971 33.3542 34.8023 33.3125 34.7867C33.1667 34.7346 32.8021 34.7242 32.6719 34.745C32.5625 34.7554 32.4115 34.7554 32.3229 34.7867L32.0156 34.8908C31.8906 34.9325 31.7813 34.9898 31.6823 35.0575L31.4948 35.1825C31.4844 35.1929 31.4792 35.1929 31.4687 35.2085L31.4635 35.2137C31.4583 35.2189 31.4583 35.2189 31.4531 35.2242C31.3437 35.3179 31.2292 35.4117 31.1458 35.5314L31.0937 35.5992C31.0885 35.6044 31.0885 35.6044 31.0833 35.6096L31.0156 35.7085C30.875 35.9273 30.7917 36.1669 30.7187 36.4117C30.6406 36.6721 30.6615 37.271 30.7812 37.5731C30.8594 37.771 30.9531 37.9742 31.0833 38.1408C31.0885 38.146 31.0885 38.146 31.0937 38.1512C31.1979 38.2867 31.3073 38.4169 31.4427 38.5262L31.5052 38.5679C31.5469 38.5992 31.5677 38.62 31.6094 38.6512C31.8177 38.8075 32.1979 38.9689 32.474 38.9898C32.849 39.0262 33.099 39.0471 33.474 38.9221C33.7083 38.8492 33.6042 38.8127 33.8437 39.2189L34.1667 39.8023C34.1875 39.8387 34.1667 39.8023 34.1927 39.8439L34.5833 40.5523C34.5937 40.5783 34.5885 40.5627 34.6094 40.5939C34.7344 40.7971 34.8437 41.0262 34.9635 41.2346L35.125 41.521C35.224 41.7137 35.3437 41.8752 35.4948 42.0262C35.6406 42.1773 35.8437 42.271 36.0365 42.3387C36.151 42.3804 36.2813 42.4064 36.401 42.4064H37.8646C38 42.4064 38.3437 42.3544 38.3437 42.4898V45.12C38.3437 45.1773 38.2812 45.2033 38.224 45.2033H32.9687C32.9115 45.2033 32.901 45.1929 32.849 45.1877L32.7396 44.7814C32.7083 44.6825 32.6823 44.5835 32.6302 44.495C32.4427 44.1564 32.2083 43.8648 31.8802 43.6512L31.5885 43.495C31.3906 43.4064 31.3854 43.4221 31.2031 43.3596C31.0625 43.3127 30.8125 43.2919 30.6458 43.3023C30.4531 43.3127 30.2604 43.3335 30.0833 43.3908C29.9375 43.4377 29.7813 43.5002 29.6406 43.5835L29.4948 43.6773C29.4896 43.6773 29.4844 43.6825 29.4844 43.6877C29.3802 43.7606 29.2969 43.8179 29.2083 43.9064L29.1302 43.9898C29.1302 43.995 29.125 43.995 29.125 44.0002C29.1198 44.0002 29.1198 44.0054 29.1146 44.0054C29.1146 44.0106 29.1094 44.0106 29.1094 44.0158L28.9427 44.2242C28.9375 44.2294 28.9375 44.2346 28.9323 44.2346L28.8854 44.3127C28.7917 44.4846 28.6875 44.6669 28.6354 44.87C28.5625 45.1877 28.5677 45.3075 28.5677 45.6564C28.5677 45.771 28.6146 45.9846 28.651 46.0835C28.6719 46.1356 28.6719 46.12 28.6875 46.1877C28.7187 46.3127 28.7969 46.4481 28.8646 46.5627C28.8698 46.5627 28.8698 46.5679 28.8698 46.5731C28.9531 46.7085 29.0573 46.8439 29.1719 46.9585L29.4531 47.1929C29.4792 47.2085 29.474 47.2085 29.4948 47.2242L30.0365 47.4846C30.1094 47.5054 30.1458 47.5314 30.2187 47.5419C30.6927 47.62 30.8594 47.62 31.3177 47.5002C31.375 47.4846 31.3906 47.4898 31.4375 47.4637L31.7187 47.3335C31.7604 47.3127 31.7812 47.3023 31.8229 47.2814C31.974 47.1929 32.1667 47.0367 32.2865 46.9012C32.3021 46.8856 32.3073 46.8804 32.3177 46.8648L32.3333 46.8492C32.3385 46.8439 32.3385 46.8439 32.3437 46.8387C32.526 46.6252 32.599 46.4742 32.7187 46.1825C32.8125 45.9429 32.7917 45.7033 32.9167 45.6773C33.0052 45.6617 33.1198 45.6721 33.1979 45.6877C33.4792 45.7294 33.7969 45.646 34.0729 45.6877C34.2708 45.7189 37.3437 45.6929 37.875 45.6929C38.1615 45.6929 38.3385 45.6304 38.3385 45.8492V48.3387C38.3385 48.4064 38.3229 48.4898 38.2552 48.4898H34.5469C34.4896 48.4898 34.4583 48.4117 34.4323 48.3648C34.3906 48.2606 34.3385 48.1669 34.2708 48.0835C34.1615 47.9533 34.0156 47.8648 33.8594 47.8075C33.6406 47.7294 33.3073 47.7242 33.0937 47.8439C32.9427 47.9325 32.8333 48.021 32.724 48.1617C32.5573 48.3804 32.5052 48.7606 32.5781 49.0158C32.6094 49.1148 32.6719 49.2398 32.7292 49.3179C33.1458 49.87 34.0104 49.8387 34.3646 49.2398L34.4115 49.1669C34.4323 49.1096 34.4583 48.9742 34.5312 48.9742H38.2396C38.2812 48.9742 38.2865 48.9846 38.3229 48.9898C38.3698 49.1825 38.3385 51.3075 38.3385 51.6825C38.3385 51.7919 38.1198 51.7502 38.0156 51.7502C37.9271 51.7502 37.8802 51.7658 37.8281 51.7658C37.6875 51.7658 37.5052 51.7398 37.3437 51.7554C37.0729 51.7762 37.1146 51.7554 36.8646 51.7554H34.2344L33.8021 51.8179C33.474 51.9221 33.276 52.0939 33.0417 52.3439L32.2917 53.2085C32.2656 53.2398 32.2448 53.2554 32.2187 53.2867L32.0156 53.5158C31.9167 53.6148 31.8281 53.7398 31.7344 53.8492C31.7187 53.8648 31.724 53.8544 31.7083 53.8752L31.625 53.9794C31.6094 53.995 31.6094 53.995 31.599 54.0054L31.5833 54.021C31.5 54.1148 31.474 54.1512 31.3594 54.0887L31.099 53.9898C30.7604 53.9221 30.5885 53.9273 30.2552 54.0002C30.1667 54.0158 30.224 54.0054 30.1667 54.0314C30.0469 54.0887 29.9375 54.12 29.8281 54.1981L29.6198 54.3648C29.5208 54.4585 29.4427 54.5627 29.3646 54.6773L29.2812 54.8283C29.2344 54.9221 29.1458 55.1981 29.1458 55.2919C29.1458 55.5835 29.1302 55.8075 29.2448 56.0679C29.3594 56.3439 29.5313 56.5783 29.7708 56.7606L30.1354 56.9585C30.401 57.0575 30.8542 57.0939 31.1094 57.0002C31.2448 56.9481 31.375 56.9117 31.5052 56.8283C31.6198 56.7502 31.724 56.6773 31.8177 56.5731C31.8802 56.5054 31.9427 56.4533 31.9896 56.37C31.9948 56.37 31.9948 56.3596 31.9948 56.3596C32 56.3544 32 56.3492 32 56.3492L32.2187 55.8439C32.2708 55.6773 32.2656 55.3439 32.224 55.1669C32.1146 54.7502 32.0365 54.7606 31.8698 54.4533L32.6927 53.5054C32.9323 53.245 33.151 52.9689 33.3854 52.7033C33.4948 52.5887 33.5885 52.4794 33.724 52.3908C33.7292 52.3908 33.7396 52.3804 33.7448 52.3804L33.875 52.3231C34.0937 52.2085 34.4323 52.2554 34.6719 52.2554H36.6615C36.9062 52.2554 37.1615 52.2346 37.3906 52.2554C37.4583 52.2606 37.5156 52.2346 37.6094 52.2346C38.4323 52.2346 38.349 52.1356 38.349 52.6356C38.349 52.7919 38.349 52.9533 38.349 53.1148C38.349 53.2814 38.3698 53.4012 38.3854 53.5575L38.4479 53.8544C38.4896 54.0106 38.5573 54.1408 38.6146 54.2919C38.724 54.5627 38.9115 54.8335 39.1094 55.0471L39.2917 55.2294C39.2969 55.2294 39.2969 55.2346 39.3021 55.2346C39.3021 55.2398 39.3073 55.2398 39.3073 55.245C39.4375 55.3648 39.5677 55.4742 39.724 55.5627L40.0365 55.7346C40.2031 55.8127 40.375 55.8752 40.5573 55.9169L40.75 55.9637C40.8125 55.9742 40.8958 55.9846 40.9583 56.0002C41.3229 56.0627 41.8437 55.9898 42.0937 56.0471C42.0937 56.5523 42.0677 57.4794 42.099 57.9637C42.1094 58.0731 42.0833 58.0939 42.0937 58.1929C42.099 58.271 42.1094 58.3179 42.1094 58.4169C42.1094 58.5783 42.1094 58.7398 42.1094 58.896C42.1094 59.0731 42.0885 59.1929 42.0937 59.3596C42.0937 59.6252 42.1198 60.0835 42.0781 60.3231C42.0573 60.4533 42.0208 60.5679 41.9427 60.6721C41.7969 60.8648 41.6302 60.9794 41.4271 61.1148L40.4844 61.7554C40.4635 61.771 40.4635 61.771 40.4427 61.7814L40.3437 61.8544C40.3229 61.87 40.2917 61.8856 40.2708 61.9012L39.8021 61.5314C39.75 61.495 39.7135 61.4742 39.6615 61.4429C39.5312 61.3596 39.3698 61.3179 39.2344 61.2554L38.8802 61.1825C38.6458 61.1617 38.2604 61.1773 38.0365 61.2502C37.8073 61.3231 37.5885 61.4221 37.3906 61.5627L37.2135 61.6981C36.9635 61.9169 36.7865 62.1825 36.6406 62.4846C36.6198 62.5262 36.6042 62.5835 36.5833 62.6304L36.5052 62.9637C36.474 63.2137 36.4531 63.5731 36.5365 63.8179C36.5781 63.9533 36.6094 64.0835 36.6667 64.2033L37.026 64.7554C37.0313 64.7554 37.0312 64.7606 37.0365 64.7606L37.0885 64.8179C37.1042 64.8335 37.1042 64.8335 37.1198 64.8492C37.2448 64.9637 37.3698 65.0627 37.5208 65.1564C37.5677 65.1877 37.6406 65.2294 37.6823 65.2502L38.0625 65.3908C38.5 65.4689 38.6719 65.495 39.1042 65.4064L39.4948 65.2762C39.6354 65.2189 39.7708 65.1304 39.8958 65.0419L40.0781 64.896L40.0833 64.8908C40.0885 64.8856 40.0885 64.8856 40.0937 64.8804L40.3229 64.6356C40.4375 64.5002 40.5052 64.3439 40.5833 64.1929C40.6875 64.0002 40.7135 63.7867 40.7448 63.5783C40.7917 63.2606 40.7656 62.8648 40.6354 62.5731C40.6146 62.5314 40.6146 62.5158 40.5885 62.4637C40.5677 62.4064 40.5469 62.4064 40.5469 62.37C40.5469 62.2658 40.6354 62.2502 40.7187 62.1929L41.1667 61.8856C41.1927 61.87 41.224 61.8544 41.25 61.8335C41.4271 61.7189 41.599 61.5731 41.7812 61.4689L41.9531 61.3544C42.099 61.2502 42.2396 61.1252 42.3333 60.9742C42.4167 60.8492 42.4896 60.7085 42.5312 60.5679L42.5937 60.1877C42.6094 59.7189 42.5625 56.0939 42.6094 56.0471C42.651 56.0002 43.3385 56.0314 43.4844 56.0314C43.5521 56.0314 43.5833 56.021 43.625 56.021C43.7552 56.021 43.9219 56.0419 44.0677 56.0314C44.2604 56.0158 44.2344 56.021 44.4115 56.0314C44.5833 56.0367 44.901 56.0002 45.026 56.0158C45.125 56.0314 45.2344 56.0314 45.3594 56.0314C45.3698 56.0679 45.375 56.0731 45.375 56.1148V59.8596C45.375 59.9221 45.1927 59.9585 45.1042 60.0158C45.0573 60.0523 45.026 60.0627 44.9844 60.1044C44.9635 60.1252 44.9531 60.1356 44.9323 60.1564L44.6875 60.5314L44.6354 60.7867C44.6354 60.9325 44.6406 61.0783 44.6979 61.2085L44.8646 61.4898C44.9427 61.5835 45.026 61.6669 45.1354 61.7137L45.1719 61.7294C45.2292 61.7658 45.1719 61.745 45.25 61.771C45.4635 61.8439 45.5208 61.8387 45.7552 61.8387C45.849 61.8387 46.0937 61.745 46.1771 61.6773L46.4323 61.4169C46.4375 61.4117 46.4375 61.4117 46.4427 61.4064L46.5 61.2971C46.6354 61.0314 46.6354 60.6669 46.4948 60.4064C46.4792 60.3856 46.474 60.3596 46.4583 60.3387L46.3229 60.1669C46.2187 60.0679 46.0833 59.9846 45.9427 59.9273C45.8906 59.9065 45.8594 59.8908 45.8594 59.8075V56.0992C45.8594 56.0627 45.8854 56.0314 45.9271 56.0314H48.6042C48.6458 56.0314 48.6562 56.0419 48.6562 56.0835V61.2502C48.6562 61.3596 48.5 61.3439 48.4167 61.3752C48.3802 61.3856 48.3958 61.3856 48.349 61.4064L48.1667 61.4794C48.0052 61.5575 47.8542 61.6877 47.7344 61.8231L47.6719 61.896C47.6354 61.9377 47.6302 61.9481 47.599 61.995C47.5729 62.0314 47.5781 62.021 47.5573 62.0575L47.375 62.495C47.3229 62.6825 47.3333 63.1044 47.3906 63.2814C47.4115 63.3387 47.4167 63.37 47.4375 63.4221C47.5156 63.6408 47.6875 63.87 47.8542 64.021C47.8542 64.0262 47.8594 64.0262 47.8594 64.0314C47.8646 64.0314 47.8646 64.0367 47.8698 64.0367L47.9635 64.1148C48.0365 64.1721 48.1302 64.2294 48.2135 64.2658L48.3385 64.3231C48.5 64.3856 48.7187 64.4273 48.8958 64.4273C49.3125 64.4273 49.724 64.2398 50.0156 63.9533C50.0208 63.9481 50.0208 63.9481 50.026 63.9429L50.2969 63.5627C50.3854 63.3804 50.4583 63.1721 50.4583 62.9689C50.4583 62.7033 50.4479 62.7085 50.401 62.4429C50.375 62.2919 50.2656 62.0887 50.1771 61.9742C50.1146 61.896 50.0729 61.8283 50 61.7606C49.9844 61.7502 49.9844 61.745 49.974 61.7346L49.6771 61.5158L49.3854 61.3804C49.3021 61.3492 49.151 61.3596 49.151 61.271V56.0835C49.151 56.0158 49.2187 56.0314 49.2917 56.0314C50.1667 56.0471 51.0417 56.0314 51.9167 56.0314C51.9635 56.2294 51.9323 58.5002 51.9323 58.9012C51.9323 59.3179 51.9219 59.4742 52.0469 59.8492C52.0781 59.9377 52.1354 60.0054 52.1719 60.0835C52.2031 60.146 52.2187 60.1825 52.25 60.245L52.6719 61.0106C52.7969 61.2762 52.9479 61.5419 53.0885 61.7919L53.3229 62.2606L53.125 62.4273L53.1198 62.4325L52.9635 62.5887C52.8906 62.6825 52.7969 62.7762 52.7396 62.8804L52.5521 63.271C52.5417 63.3023 52.5417 63.3127 52.5312 63.3387C52.5208 63.3752 52.5052 63.396 52.4896 63.4533L52.4323 63.7346C52.4115 63.9273 52.4115 64.1096 52.4323 64.3023L52.5208 64.6721L52.7031 65.0939C52.7292 65.1304 52.7292 65.146 52.7552 65.1825C52.8958 65.4169 53.1406 65.6565 53.3646 65.8023C53.5208 65.9012 53.6979 65.9846 53.8698 66.0523C54.0729 66.1356 54.3177 66.1564 54.5573 66.1564C54.8542 66.1564 54.9271 66.1252 55.1667 66.0783C55.2604 66.0575 55.2917 66.0367 55.375 66.0054C55.4687 65.9742 55.5469 65.9169 55.6302 65.8752L56.1719 65.4325C56.3333 65.2554 56.3021 65.2606 56.4167 65.0783L56.5521 64.8179C56.5677 64.7867 56.5677 64.7554 56.5885 64.7189L56.6406 64.5158C56.6615 64.4117 56.6771 64.4169 56.6875 64.3023V63.7189C56.6823 63.6304 56.6562 63.5731 56.6406 63.4898C56.6146 63.3439 56.5573 63.2242 56.5 63.0992C56.4531 62.9898 56.3802 62.8596 56.3073 62.7606L56.0573 62.4794C56.0521 62.4742 56.0417 62.4637 56.0365 62.4637L55.75 62.2346C55.75 62.2294 55.7448 62.2294 55.7396 62.2294L55.6875 62.1929C55.6875 62.1877 55.6823 62.1877 55.6771 62.1825L55.5781 62.1304C55.526 62.0992 55.4635 62.0679 55.4062 62.0419C55.2812 61.995 55.1354 61.9325 55 61.9169C54.5833 61.8648 54.5104 61.8439 54.099 61.9221C54.0208 61.9377 53.8646 62.0054 53.8021 62.0054C53.7448 62.0002 53.724 61.9377 53.6979 61.896L53.5365 61.5939C53.4531 61.4221 53.3437 61.2658 53.2656 61.0887C53.2448 61.0419 53.2396 61.0367 53.2135 60.9898L52.7812 60.1825C52.6354 59.9117 52.5156 59.745 52.4375 59.4481C52.4219 59.3908 52.4115 59.3804 52.4115 59.3179V56.0887C52.4115 55.995 52.5573 56.021 52.651 56.021C52.7552 56.021 52.8542 56.021 52.9583 56.021C53.2812 56.021 53.526 56.0002 53.8177 55.9533L54.3958 55.7606C54.4323 55.7502 54.4479 55.7294 54.4896 55.7137C54.5417 55.6929 54.5469 55.6877 54.5937 55.6617L55.3021 55.1356C55.3229 55.12 55.3125 55.1304 55.3281 55.1096L55.7552 54.5575C55.7552 54.5523 55.7656 54.5367 55.7656 54.5367C55.9479 54.1981 56.0052 54.0158 56.1042 53.6408C56.1458 53.5002 56.1562 53.245 56.1667 53.0835C56.2344 52.2919 55.9531 52.2189 56.5052 52.2398L57.6458 52.245C57.7656 52.245 57.8437 52.2346 57.9375 52.2294C58.026 52.2189 58.099 52.245 58.2135 52.245C58.3542 52.245 58.4375 52.2294 58.5521 52.2242C58.6823 52.2242 58.7448 52.245 58.8802 52.245C59.1146 52.245 59.2812 52.2189 59.474 52.3023C59.5104 52.3231 59.4844 52.3127 59.5312 52.3335L59.6979 52.4221C59.776 52.4742 59.8177 52.521 59.875 52.5887L59.9427 52.6721C59.9427 52.6773 59.9479 52.6825 59.9479 52.6825C60.2448 53.1512 60.5937 53.8127 60.8958 54.3127L61.0833 54.6408C61.1042 54.6773 61.151 54.7033 61.151 54.7502C61.151 54.8648 61.151 54.8075 61.125 54.8439C61.125 54.8439 61.099 54.8648 61.099 54.87C61.0781 54.8908 61.0625 54.9065 61.0365 54.9273C61.0156 54.9481 61.0208 54.9377 61 54.9585C60.901 55.0627 60.8177 55.1877 60.75 55.3127C60.6875 55.4221 60.625 55.5679 60.599 55.6929C60.5208 56.021 60.5365 56.4637 60.6927 56.7658C60.7865 56.9533 60.8958 57.1408 61.0521 57.2814L61.1198 57.3387C61.3177 57.5054 61.4687 57.5783 61.7135 57.6669C62.0521 57.7919 62.474 57.7554 62.8125 57.6304L63.1146 57.4689C63.1667 57.4325 63.1979 57.4169 63.2448 57.3804C63.2448 57.3752 63.25 57.37 63.25 57.37C63.2552 57.3648 63.2552 57.3648 63.2604 57.3596C63.2656 57.3596 63.2656 57.3544 63.2708 57.3544C63.2708 57.3492 63.276 57.3492 63.276 57.3439L63.4479 57.1721C63.5625 57.0471 63.6615 56.8856 63.7292 56.7294C63.7917 56.5679 63.8385 56.3648 63.8437 56.1773C63.8437 55.9533 63.8333 55.8023 63.7656 55.6044C63.75 55.5679 63.75 55.5367 63.7396 55.5054C63.724 55.4533 63.7292 55.4794 63.7083 55.4377C63.6927 55.4064 63.6875 55.3856 63.6719 55.3544C63.6094 55.2398 63.5365 55.12 63.4531 55.0262C63.4479 55.021 63.4479 55.021 63.4427 55.0158L62.9635 54.6408C62.875 54.5887 62.7031 54.521 62.6042 54.5002C62.5417 54.4846 62.4792 54.4846 62.4062 54.4742C61.6771 54.37 61.6719 54.745 61.5052 54.396L61.2396 53.9429C61.2344 53.9273 61.224 53.9169 61.2187 53.9117C61.1927 53.8648 61.1979 53.8648 61.1719 53.8231L60.6719 52.9637C60.6719 52.9585 60.6667 52.9533 60.6667 52.9533L60.3073 52.3492L60.0937 52.1148C60.0885 52.1148 60.0885 52.1096 60.0833 52.1096L59.7708 51.9064C59.6667 51.8439 59.5677 51.8179 59.4375 51.7971C59.3646 51.7815 59.2865 51.7606 59.224 51.7502C59.026 51.7294 56.8698 51.745 56.375 51.7502C56.2448 51.7502 56.2344 51.7606 56.151 51.7137C56.1979 51.1773 56.1667 49.8492 56.1667 49.245C56.1667 49.146 56.1354 48.9689 56.2344 48.9689H62.1406C62.3281 48.9689 62.224 49.3544 62.776 49.62C62.8229 49.6408 62.8125 49.6408 62.8437 49.6512C63.0729 49.7398 63.2396 49.7137 63.4531 49.6669C63.4792 49.6617 63.5156 49.6564 63.5469 49.6408C63.6562 49.5887 63.7552 49.5471 63.8437 49.4585C64.0469 49.2606 64.0573 49.2085 64.1406 48.9325C64.2135 48.6825 64.1302 48.3544 63.974 48.146L63.8594 48.021L63.4427 47.7867C63.2448 47.7137 62.9844 47.7502 62.7917 47.8231C62.7552 47.8387 62.75 47.8439 62.7083 47.8648L62.625 47.9169C62.4583 48.0523 62.4062 48.12 62.2969 48.3075C62.2656 48.3648 62.2552 48.4898 62.1719 48.4898H56.2656C56.2187 48.4898 56.2187 48.4846 56.1771 48.4742C56.1302 48.2658 56.1615 47.5054 56.1615 47.2242L56.1562 45.8908C56.1562 45.8856 56.1615 45.8439 56.1615 45.8335C56.1615 45.7606 56.1562 45.7658 56.1771 45.7137C56.2187 45.6721 59.9115 45.6929 60.2812 45.6929C60.7031 45.6929 62.276 45.7294 62.5677 45.6617L62.7656 45.6044C62.8698 45.5627 63.0104 45.495 63.099 45.4221L63.5208 45.0679C63.625 44.9846 63.6562 44.9325 63.7656 45.0314L63.8281 45.0887C63.8333 45.0939 63.8385 45.0939 63.8385 45.0992L64.151 45.2814C64.2708 45.3439 64.4271 45.4064 64.5521 45.4325C64.6875 45.4585 64.7656 45.495 64.9219 45.495C65.1927 45.495 65.4531 45.495 65.7083 45.4221L66.3906 45.0731C66.5937 44.9169 66.75 44.7502 66.8854 44.5419L66.9844 44.3804C67.0312 44.2919 67.0781 44.2033 67.1094 44.1096C67.1146 44.0835 67.1198 44.0471 67.1354 44.0158C67.1562 43.9637 67.1562 43.9742 67.1719 43.9169L67.2292 43.5939C67.276 43.1408 67.1927 42.6773 66.9583 42.2814C66.8698 42.1408 66.7604 41.9794 66.6354 41.8596C66.6198 41.8439 66.6198 41.8439 66.599 41.8283L66.5937 41.8231L66.0573 41.4429C65.8229 41.3283 65.724 41.3127 65.4844 41.2606C65.4115 41.245 65.3698 41.2242 65.2865 41.2242C64.8802 41.2242 64.9375 41.2137 64.5885 41.2814C64.4375 41.3127 64.3281 41.3648 64.1927 41.4169L63.9687 41.5419C63.6562 41.7502 63.3906 42.021 63.2083 42.3544C63.1406 42.4742 63.099 42.6096 63.0521 42.7346C62.9896 42.9064 62.9635 43.1408 62.9479 43.3387L62.974 43.6721C63.0052 43.8804 63.1146 44.2085 63.2187 44.3908C63.3542 44.6356 63.3594 44.5575 63.1771 44.7294L63.0729 44.8179C62.7187 45.12 62.6094 45.2242 62.0885 45.2242H56.375C56.2448 45.2242 56.1562 45.2294 56.1615 45.1356C56.1719 44.9585 56.1406 44.7294 56.1562 44.5939C56.1927 44.3648 56.1667 43.0471 56.1667 42.6669C56.1667 42.5471 56.1198 42.4273 56.2708 42.4273H59.6875C59.7708 42.4273 59.7917 42.4689 59.8177 42.5367C59.849 42.6252 59.8854 42.7033 59.9427 42.7762L60.1198 42.9585C60.1562 42.9898 60.151 42.9846 60.1927 43.0054L60.349 43.0887C60.4375 43.1304 60.5417 43.1512 60.6354 43.1617C60.8802 43.1981 61.151 43.12 61.3385 42.9585L61.5417 42.7502C61.6198 42.646 61.6771 42.5106 61.6979 42.3752C61.7396 42.0783 61.7135 42.0262 61.6302 41.771L61.5729 41.6617C61.5677 41.6564 61.5625 41.6512 61.5625 41.646L61.4427 41.495C61.4427 41.4898 61.4375 41.4898 61.4375 41.4846L61.3542 41.4117C61.2448 41.3283 61.1042 41.2606 60.974 41.2294C60.7187 41.1669 60.4115 41.2137 60.2031 41.3596C60.1771 41.3752 60.1667 41.3804 60.1406 41.4012L60.0833 41.4481C59.9896 41.5367 59.9427 41.6044 59.8698 41.7137C59.8333 41.7762 59.8073 41.9429 59.724 41.9429H56.2396C56.1354 41.9429 56.1615 41.62 56.1667 41.5627C56.1823 41.2658 56.1771 40.9846 56.1302 40.6825C56.1198 40.5992 56.099 40.5627 56.0833 40.4846C56.0625 40.3596 56.026 40.2502 55.9792 40.1304C55.9531 40.0679 55.9375 40.0262 55.9115 39.9742L55.8594 39.8544C55.7656 39.6981 55.6823 39.5419 55.5677 39.3908L55.4062 39.1929C55.3854 39.1669 55.3802 39.1565 55.3594 39.1356C55.3125 39.0939 55.2812 39.0575 55.2396 39.0158L54.8437 38.7085C54.7292 38.62 54.5208 38.521 54.3854 38.4585L54.0469 38.3387C53.974 38.3231 53.9844 38.3023 53.8698 38.2867C53.75 38.271 53.6198 38.2242 53.474 38.2242C53.3177 38.2189 53.1615 38.2242 53.0104 38.2242C52.9271 38.2242 52.849 38.2242 52.7708 38.2242C52.6875 38.2242 52.4427 38.2398 52.4427 38.1356V34.396C52.4427 33.995 52.6354 33.6096 53.0156 33.4585C53.0729 33.4325 53.0573 33.4377 53.0937 33.4169L54.5208 32.7814C54.6042 32.7814 54.6771 32.9481 54.7344 33.0106C54.7604 33.0367 54.7552 33.0315 54.776 33.0575L54.8854 33.1669C54.8906 33.1721 54.901 33.1825 54.9062 33.1877L55.0469 33.3023C55.2187 33.4429 55.2552 33.4481 55.4635 33.5575C55.6562 33.6564 56.0573 33.7606 56.276 33.7606C56.5052 33.7606 56.75 33.7554 56.974 33.6669C57.0781 33.6252 57.099 33.6356 57.2396 33.5783L57.7917 33.2189C57.9896 33.0419 58.1562 32.8387 58.276 32.5992C58.3333 32.4846 58.3906 32.3544 58.4271 32.2242C58.4479 32.1565 58.4479 32.0887 58.4635 32.021C58.4844 31.9429 58.5052 31.9117 58.5052 31.8179C58.5052 31.4794 58.5312 31.4846 58.4635 31.1773L58.224 30.521C58.1562 30.4117 58.0781 30.3023 57.9896 30.2033L57.901 30.1096C57.8958 30.1044 57.8958 30.1044 57.8906 30.0992C57.8594 30.0679 57.8646 30.0731 57.8281 30.0419L57.7552 29.9794C57.7292 29.9533 57.7187 29.9481 57.6875 29.9273L57.2135 29.646C56.9271 29.521 56.6823 29.4898 56.3594 29.4898C56.0312 29.4898 55.9062 29.5262 55.6354 29.6096L55.25 29.7867C55.0729 29.9065 54.9271 30.0367 54.776 30.1877C54.599 30.3596 54.4844 30.5783 54.3802 30.8075C54.3385 30.8908 54.2292 31.3023 54.2292 31.396V31.8231C54.2292 31.9689 54.2969 32.0783 54.2969 32.2502C54.2969 32.2971 53.9531 32.4273 53.8906 32.4585L53.4792 32.6512C53.1927 32.7919 52.6823 32.9533 52.4583 33.1564L52.224 33.3856C52.1979 33.4169 52.1823 33.4377 52.1562 33.4742C52.1354 33.5158 52.1198 33.5419 52.099 33.5731L52.0521 33.6617C52.026 33.7137 52.0208 33.7242 52 33.7658C51.9167 33.9637 51.8906 34.2189 51.8958 34.4325C51.8958 34.495 51.9062 34.5315 51.9062 34.5679C51.9062 34.6096 51.8958 34.62 51.8958 34.6877V37.2814C51.8958 37.5002 51.9115 37.7398 51.8958 37.9533C51.8906 38.0367 51.9219 38.1096 51.8958 38.2085C51.8385 38.2137 51.8333 38.2242 51.7708 38.2242H49.3854C49.3229 38.2242 49.1615 38.2346 49.1615 38.1356V31.7554Z" fill="white"/>
</g>
<path fill-rule="evenodd" clip-rule="evenodd" d="M42.5365 50.1615C42.5365 50.0469 42.7187 49.6198 42.7656 49.4948L44.0208 46.0521C44.0365 46.0001 44.0365 45.9948 44.0573 45.9532C44.0781 45.9063 44.0781 45.9063 44.0937 45.849C44.1094 45.7813 44.1042 45.7969 44.1302 45.7448L44.2031 45.5469C44.2187 45.5053 44.224 45.4896 44.2396 45.448L44.5677 44.573C44.5937 44.5157 44.5781 44.5157 44.599 44.4636C44.6198 44.3855 44.7656 44.0209 44.8021 43.9844C44.8125 43.974 44.875 43.9428 44.8906 43.9376C45.0365 43.8751 45.5156 43.9271 45.6927 43.9271C45.8906 43.9271 46.4427 43.8542 46.5781 43.9844L46.7812 44.474C46.7917 44.5105 46.7969 44.5417 46.8125 44.5782C46.8281 44.6303 46.8594 44.7292 46.8854 44.7813L47.099 45.3698C47.1146 45.4219 47.1146 45.4271 47.1406 45.474L47.724 47.0678C47.7344 47.0938 47.7292 47.0938 47.7344 47.1198L47.8281 47.3698C47.8594 47.4376 47.8802 47.5105 47.9062 47.5678L48.0885 48.073C48.1042 48.1146 48.1042 48.1355 48.1198 48.1771C48.1354 48.224 48.1458 48.2344 48.1615 48.2761C48.1771 48.323 48.1719 48.3282 48.1927 48.3751C48.224 48.4376 48.2135 48.4011 48.2344 48.474L48.3385 48.7657C48.3542 48.8021 48.3542 48.8282 48.3698 48.8698C48.5104 49.198 48.6094 49.5417 48.7396 49.8751C48.7969 50.0417 48.9479 50.2605 48.7135 50.2605H47.6146C47.4531 50.2605 47.4219 50.1823 47.375 50.0573L47.1562 49.5001C47.1198 49.3803 47.0417 49.2448 47.0104 49.1094H44.3698C44.3177 49.1823 44.3229 49.1771 44.2917 49.2761L44.0052 50.0313C43.9896 50.0678 43.9948 50.0782 43.9792 50.1094C43.9583 50.1719 43.9375 50.2084 43.875 50.2344C43.7187 50.2917 42.8958 50.2605 42.6875 50.2605C42.599 50.2605 42.5312 50.2344 42.5312 50.1563L42.5365 50.1615ZM49.8177 44.0469C49.8177 43.9584 49.8854 43.9115 49.9687 43.9115H51.099C51.224 43.9115 51.3073 43.9428 51.3229 44.0469V47.9948C51.3229 48.1355 51.3385 48.2084 51.3385 48.3386C51.3385 48.4792 51.3177 48.5573 51.3177 48.6823C51.3177 48.823 51.3437 48.8907 51.3385 49.0261C51.3333 49.1355 51.3177 49.2188 51.3177 49.349C51.3177 49.5105 51.3542 50.0261 51.3073 50.1667C51.2865 50.2396 51.2552 50.2448 51.1771 50.2553L50.7708 50.2761C50.4948 50.2657 50.6927 50.2553 50.3906 50.2761C50.3073 50.2813 50.2917 50.2605 50.2083 50.2605C49.8958 50.2553 49.8073 50.3073 49.8073 50.0573V44.0469H49.8177ZM40.9375 41.4428V52.7657C40.9375 52.8646 41.0104 53.073 41.099 53.1719C41.1823 53.2605 41.3594 53.3855 41.474 53.3855H53.0104C53.2135 53.3855 53.4687 53.198 53.5312 52.9376C53.5417 52.8855 53.5625 52.8751 53.5625 52.8178V41.3907C53.5625 41.2865 53.5052 41.1615 53.4531 41.0678C53.4062 40.9896 53.375 40.9688 53.3021 40.9115C53.25 40.8698 53.2865 40.8959 53.224 40.8646C53.1198 40.8178 53.0052 40.7865 52.8802 40.7969C52.6198 40.8282 51.0521 40.8073 50.7083 40.8073H41.6094C41.4427 40.8073 41.4219 40.7969 41.3021 40.8594C41.1719 40.9271 41.125 40.9532 41.0417 41.099C40.9948 41.1771 40.9375 41.3178 40.9375 41.4428Z" fill="white"/>
<path fill-rule="evenodd" clip-rule="evenodd" d="M44.6823 47.9272C44.6823 47.9689 44.6927 47.9793 44.7291 47.9793H46.651C46.7552 47.9793 46.6718 47.8752 46.6562 47.8387L46.3802 47.0158C46.3645 46.9845 46.3593 46.9741 46.3437 46.9325C46.3333 46.9064 46.3281 46.8752 46.3177 46.8439L45.677 45.0991C45.6614 45.1668 45.6406 45.1929 45.6198 45.2606C45.6041 45.297 45.6041 45.3179 45.5833 45.3491C45.5625 45.4012 45.5677 45.37 45.552 45.4377L45.151 46.5991C45.1354 46.6408 45.1354 46.6252 45.1145 46.6825C45.1041 46.7293 45.1041 46.7345 45.0885 46.771L45.026 46.9533C45.0104 46.9897 45.0052 46.9793 44.9895 47.0366L44.8073 47.5679C44.7916 47.6147 44.7968 47.62 44.776 47.6616L44.6823 47.9272Z" fill="white"/>
<path d="M88.7948 53.432C89.6281 53.432 90.4406 53.307 91.2323 53.057C92.0343 52.7965 92.6281 52.5465 93.0031 52.307L93.5448 51.932L95.8989 56.6403C95.826 56.6976 95.7218 56.7757 95.5864 56.8695C95.4458 56.9684 95.1281 57.1507 94.6281 57.4111C94.1281 57.6768 93.5916 57.9111 93.0239 58.1195C92.451 58.3174 91.701 58.484 90.7739 58.6403C89.8573 58.7913 88.9093 58.8695 87.9406 58.8695C85.675 58.8695 83.5291 58.3226 81.5031 57.2236C79.4875 56.1143 77.8625 54.5882 76.6281 52.6403C75.3885 50.6976 74.7739 48.5986 74.7739 46.3486C74.7739 44.6403 75.1333 43.0049 75.8573 41.432C76.5916 39.8643 77.5656 38.5257 78.7739 37.4111C79.9823 36.2861 81.3833 35.3903 82.9823 34.7236C84.5916 34.057 86.2427 33.7236 87.9406 33.7236C89.5083 33.7236 90.951 33.9111 92.2739 34.2861C93.5916 34.6611 94.5291 35.0309 95.0864 35.3903L95.8989 35.9528L93.5448 40.6611C93.4041 40.5518 93.1958 40.4111 92.9198 40.2445C92.6541 40.0778 92.1073 39.859 91.2739 39.5778C90.451 39.3018 89.6281 39.1611 88.7948 39.1611C87.4614 39.1611 86.2583 39.3799 85.1906 39.807C84.1333 40.2393 83.2948 40.807 82.6698 41.5153C82.0552 42.2236 81.5916 42.9893 81.2739 43.807C80.951 44.6143 80.7948 45.4424 80.7948 46.2861C80.7948 48.1351 81.4823 49.7861 82.8573 51.2445C84.2427 52.7028 86.2218 53.432 88.7948 53.432Z" fill="white"/>
<path d="M103.539 34.1611V58.432H98.0178V34.1611H103.539Z" fill="white"/>
<path d="M107.074 34.1611H115.928C118.397 34.1611 120.397 34.8018 121.928 36.0778C123.454 37.359 124.219 39.2132 124.219 41.6403C124.219 44.0726 123.438 45.984 121.886 47.3695C120.344 48.7445 118.355 49.432 115.928 49.432H112.594V58.432H107.074V34.1611ZM112.594 45.0153H114.157C115.391 45.0153 116.407 44.7653 117.199 44.2653C117.99 43.7653 118.386 42.9476 118.386 41.807C118.386 40.6559 117.99 39.8278 117.199 39.3278C116.407 38.8278 115.391 38.5778 114.157 38.5778H112.594V45.0153Z" fill="white"/>
<path d="M132.176 48.7028V58.432H126.655V34.1611H132.176V43.8486H140.009V34.1611H145.53V58.432H140.009V48.7028H132.176Z" fill="white"/>
<path d="M162.935 34.1611V39.0153H154.58V43.8486H162.58V48.7028H154.58V53.5778H162.935V58.432H149.06V34.1611H162.935Z" fill="white"/>
<path d="M166.113 34.1611H174.779C177.113 34.1611 179.014 34.7861 180.488 36.0361C181.957 37.2757 182.696 39.0518 182.696 41.3695C182.696 43.1611 182.248 44.6611 181.363 45.8695C180.472 47.0674 179.259 47.9111 177.717 48.4111L186.071 58.432H179.05L171.634 48.8486V58.432H166.113V34.1611ZM171.634 44.932H172.279C172.79 44.932 173.222 44.9268 173.571 44.9111C173.931 44.8851 174.332 44.8174 174.779 44.7028C175.238 44.5778 175.597 44.4111 175.863 44.2028C176.139 43.984 176.373 43.6715 176.571 43.2653C176.779 42.8486 176.884 42.3486 176.884 41.7653C176.884 41.1715 176.779 40.6715 176.571 40.2653C176.373 39.8486 176.139 39.5361 175.863 39.3278C175.597 39.109 175.238 38.9424 174.779 38.8278C174.332 38.7028 173.931 38.6351 173.571 38.6195C173.222 38.5934 172.79 38.5778 172.279 38.5778H171.634V44.932Z" fill="white"/>
<path d="M200.719 34.1611V53.5778H209.073V58.432H195.198V34.1611H200.719Z" fill="#81CC2A"/>
<path d="M225.685 34.1611V39.0153H217.331V43.8486H225.331V48.7028H217.331V53.5778H225.685V58.432H211.81V34.1611H225.685Z" fill="#81CC2A"/>
<path d="M241.176 34.1611L250.988 58.432H245.03L243.238 53.5778H234.009L232.217 58.432H226.259L236.071 34.1611H241.176ZM241.363 48.7236L238.655 41.6611H238.592L235.884 48.7236H241.363Z" fill="#81CC2A"/>
<path d="M251.914 34.1611H258.935C262.31 34.1611 265.19 35.3174 267.581 37.6195C269.982 39.9268 271.185 42.8174 271.185 46.2861C271.185 49.7757 269.987 52.6715 267.602 54.9736C265.211 57.2809 262.32 58.432 258.935 58.432H251.914V34.1611ZM257.435 53.4945H258.289C260.315 53.4945 261.966 52.8174 263.248 51.4528C264.539 50.0934 265.19 48.3799 265.206 46.307C265.206 44.2549 264.56 42.5361 263.268 41.1611C261.987 39.7861 260.331 39.0986 258.289 39.0986H257.435V53.4945Z" fill="#81CC2A"/>
<path d="M282.55 33.7236C283.868 33.7236 285.154 33.9216 286.404 34.307C287.654 34.682 288.582 35.057 289.196 35.432L290.071 36.0153L287.842 40.432C287.66 40.307 287.41 40.1559 287.092 39.9736C286.785 39.7965 286.201 39.5465 285.342 39.2236C284.477 38.9059 283.675 38.7445 282.925 38.7445C282.009 38.7445 281.3 38.9476 280.8 39.3486C280.3 39.7393 280.05 40.2653 280.05 40.932C280.05 41.2653 280.165 41.5778 280.404 41.8695C280.639 42.1507 281.04 42.4476 281.613 42.7653C282.181 43.0882 282.681 43.3486 283.113 43.557C283.54 43.7549 284.207 44.0465 285.113 44.432C286.681 45.0986 288.014 46.0101 289.113 47.1611C290.222 48.3018 290.779 49.5986 290.779 51.057C290.779 52.4476 290.529 53.6611 290.029 54.7028C289.529 55.7445 288.842 56.557 287.967 57.1403C287.102 57.7236 286.139 58.1559 285.071 58.432C284.014 58.7236 282.868 58.8695 281.634 58.8695C280.576 58.8695 279.535 58.7549 278.509 58.5361C277.493 58.3278 276.639 58.0674 275.946 57.7445C275.264 57.4268 274.644 57.109 274.092 56.7861C273.55 56.4684 273.155 56.2028 272.905 55.9945L272.509 55.6611L275.28 51.0153C275.514 51.2132 275.832 51.4632 276.238 51.7653C276.655 52.0726 277.389 52.484 278.446 52.9945C279.498 53.4945 280.425 53.7445 281.217 53.7445C283.55 53.7445 284.717 52.9528 284.717 51.3695C284.717 51.0361 284.634 50.734 284.467 50.4528C284.3 50.1611 284.009 49.8799 283.592 49.5986C283.175 49.307 282.8 49.0778 282.467 48.9111C282.144 48.7445 281.618 48.4945 280.884 48.1611C280.144 47.8174 279.602 47.5518 279.259 47.3695C277.785 46.6507 276.644 45.7445 275.842 44.6611C275.035 43.5674 274.634 42.3903 274.634 41.1403C274.634 38.9632 275.436 37.182 277.05 35.807C278.66 34.4216 280.493 33.7236 282.55 33.7236Z" fill="#81CC2A"/>
<path d="M139.744 73.6014H138.16V66.0389L134.952 72.5389H133.848L130.639 66.0389V73.6014H129.035V63.4556H131.056L134.41 70.2056L137.744 63.4556H139.744V73.6014Z" fill="white"/>
<path d="M148.784 73.6014V72.6639C148.226 73.3306 147.372 73.6639 146.221 73.6639C145.398 73.6639 144.742 73.4451 144.242 72.9972C143.753 72.5545 143.513 71.9868 143.513 71.2889C143.513 70.5806 143.768 70.0181 144.284 69.6014C144.794 69.1847 145.513 68.9764 146.43 68.9764H148.763V68.7264C148.763 68.242 148.601 67.867 148.284 67.6014C147.976 67.3254 147.523 67.1847 146.93 67.1847C146.18 67.1847 145.419 67.4504 144.659 67.9764L143.971 66.8097C144.555 66.466 145.081 66.216 145.555 66.0597C146.023 65.9087 146.601 65.8306 147.284 65.8306C148.268 65.8306 149.034 66.0754 149.575 66.5597C150.117 67.0337 150.393 67.6951 150.409 68.5389V73.6014H148.784ZM146.575 72.3514C147.169 72.3514 147.669 72.2212 148.075 71.9556C148.492 71.6795 148.721 71.3254 148.763 70.8931V70.1847H146.68C146.122 70.1847 145.721 70.2681 145.471 70.4347C145.221 70.591 145.096 70.8462 145.096 71.2056C145.096 71.5545 145.226 71.8306 145.492 72.0389C145.753 72.2472 146.117 72.3514 146.575 72.3514Z" fill="white"/>
<path d="M156.142 65.8931V67.4347C156.668 66.367 157.558 65.8306 158.808 65.8306V67.4347C158.043 67.3931 157.423 67.5754 156.954 67.9764C156.48 68.367 156.209 68.9035 156.142 69.5806V73.6014H154.475V65.8931H156.142Z" fill="white"/>
<path d="M165.051 70.0599L163.738 71.4349V73.6016H162.092V62.8516H163.738V69.3516L167.155 65.8932H169.071L166.217 68.8724L169.28 73.6016H167.301L165.051 70.0599Z" fill="white"/>
<path d="M175.622 65.8306C176.94 65.8306 177.898 66.2368 178.497 67.0389C179.091 67.8306 179.336 68.9504 179.226 70.3931H173.414C173.549 70.992 173.83 71.466 174.247 71.8097C174.674 72.1431 175.195 72.3097 175.81 72.3097C176.669 72.3097 177.393 72.0129 177.976 71.4139L178.851 72.3514C178.06 73.2264 176.997 73.6639 175.664 73.6639C174.481 73.6639 173.528 73.3045 172.81 72.5806C172.086 71.8618 171.726 70.9243 171.726 69.7681C171.726 68.6014 172.086 67.6587 172.81 66.9347C173.544 66.216 174.481 65.8462 175.622 65.8306ZM173.393 69.1639H177.789C177.757 68.5545 177.549 68.0701 177.164 67.7056C176.773 67.3462 176.268 67.1639 175.643 67.1639C175.028 67.1639 174.523 67.3462 174.122 67.7056C173.731 68.0701 173.487 68.5545 173.393 69.1639Z" fill="white"/>
<path d="M186.738 71.8306L187.155 73.1014C186.514 73.4764 185.884 73.6639 185.259 73.6639C184.634 73.6639 184.118 73.4764 183.717 73.1014C183.311 72.7264 183.113 72.1743 183.113 71.4347V67.4347H182.03V66.1847H183.113V64.0806H184.759V66.1847H187.03V67.4347H184.759V71.1222C184.759 71.5129 184.821 71.7837 184.946 71.9347C185.082 72.091 185.3 72.1639 185.592 72.1639C185.894 72.1639 186.28 72.0545 186.738 71.8306Z" fill="white"/>
<path d="M190.648 62.9767C190.841 62.784 191.075 62.6851 191.356 62.6851C191.632 62.6851 191.861 62.784 192.044 62.9767C192.221 63.159 192.315 63.4038 192.315 63.7059C192.315 63.9871 192.221 64.2215 192.044 64.4142C191.861 64.6121 191.632 64.7059 191.356 64.7059C191.075 64.7059 190.841 64.6121 190.648 64.4142C190.466 64.2215 190.377 63.9871 190.377 63.7059C190.377 63.4038 190.466 63.159 190.648 62.9767ZM192.169 73.6017H190.523V65.8934H192.169V73.6017Z" fill="white"/>
<path d="M200.963 65.8306C201.864 65.8306 202.567 66.0962 203.067 66.6222C203.578 67.1535 203.838 67.8827 203.838 68.8097V73.6014H202.172V69.2681C202.172 68.6847 202.005 68.2368 201.672 67.9139C201.349 67.5806 200.901 67.4139 200.317 67.4139C199.692 67.4139 199.182 67.6118 198.797 67.9972C198.406 68.3879 198.182 68.8879 198.13 69.4972V73.6014H196.463V65.8931H198.13V67.3722C198.656 66.3462 199.599 65.8306 200.963 65.8306Z" fill="white"/>
<path d="M214.853 65.8931V72.8514C214.853 73.9451 214.483 74.8201 213.749 75.4764C213.025 76.1274 212.062 76.4556 210.853 76.4556C209.713 76.4556 208.645 76.1118 207.645 75.4347L208.353 74.2472C209.114 74.7993 209.921 75.0806 210.77 75.0806C211.504 75.0806 212.088 74.8774 212.52 74.4764C212.963 74.0858 213.187 73.5597 213.187 72.8931V71.9139C212.655 72.7889 211.812 73.2264 210.645 73.2264C209.603 73.2264 208.76 72.8879 208.124 72.2056C207.483 71.5129 207.166 70.6118 207.166 69.4972C207.166 68.4139 207.478 67.5389 208.103 66.8722C208.739 66.1951 209.567 65.8462 210.582 65.8306C211.76 65.8306 212.629 66.2681 213.187 67.1431V65.8931H214.853ZM210.978 71.9139C211.629 71.9139 212.155 71.6951 212.562 71.2472C212.978 70.8045 213.187 70.2368 213.187 69.5389C213.187 68.8462 212.978 68.2837 212.562 67.8514C212.155 67.4087 211.629 67.1847 210.978 67.1847C210.322 67.1847 209.791 67.4087 209.374 67.8514C208.957 68.2837 208.739 68.8462 208.728 69.5389C208.739 70.2368 208.947 70.8045 209.353 71.2472C209.77 71.6951 210.312 71.9139 210.978 71.9139Z" fill="white"/>
<path d="M231.89 64.9972H226.369V67.7472H231.328V69.2681H226.369V72.0597H232.078V73.6014H224.661V63.4556H231.89V64.9972Z" fill="white"/>
<path d="M238.679 68.5389L240.429 65.8931H242.262L239.783 69.6431L242.429 73.6014H240.512L238.679 70.7681L236.72 73.6014H234.866L237.575 69.6431L235.054 65.8931H236.97L238.679 68.5389Z" fill="white"/>
<path d="M250.177 65.8306C251.26 65.8306 252.141 66.2004 252.823 66.9347C253.5 67.6587 253.844 68.6118 253.844 69.7889C253.844 70.9451 253.51 71.8827 252.844 72.6014C252.177 73.3097 251.292 73.6639 250.198 73.6639C248.958 73.6639 248.052 73.2004 247.469 72.2681V76.4139H245.823V65.8931H247.469V67.2264C248.052 66.2993 248.953 65.8306 250.177 65.8306ZM248.135 71.5389C248.578 72.0129 249.141 72.2472 249.823 72.2472C250.5 72.2472 251.062 72.0129 251.51 71.5389C251.953 71.0701 252.177 70.466 252.177 69.7264C252.177 69.0077 251.953 68.4087 251.51 67.9347C251.062 67.466 250.5 67.2264 249.823 67.2264C249.141 67.2264 248.578 67.466 248.135 67.9347C247.687 68.4087 247.469 69.0077 247.469 69.7264C247.469 70.466 247.687 71.0701 248.135 71.5389Z" fill="white"/>
<path d="M260.584 65.8306C261.902 65.8306 262.86 66.2368 263.459 67.0389C264.053 67.8306 264.298 68.9504 264.188 70.3931H258.376C258.511 70.992 258.793 71.466 259.209 71.8097C259.636 72.1431 260.157 72.3097 260.772 72.3097C261.631 72.3097 262.355 72.0129 262.938 71.4139L263.813 72.3514C263.022 73.2264 261.959 73.6639 260.626 73.6639C259.444 73.6639 258.49 73.3045 257.772 72.5806C257.048 71.8618 256.688 70.9243 256.688 69.7681C256.688 68.6014 257.048 67.6587 257.772 66.9347C258.506 66.216 259.444 65.8462 260.584 65.8306ZM258.355 69.1639H262.751C262.72 68.5545 262.511 68.0701 262.126 67.7056C261.735 67.3462 261.23 67.1639 260.605 67.1639C259.99 67.1639 259.485 67.3462 259.084 67.7056C258.694 68.0701 258.449 68.5545 258.355 69.1639Z" fill="white"/>
<path d="M269.429 65.8931V67.4347C269.955 66.367 270.846 65.8306 272.096 65.8306V67.4347C271.33 67.3931 270.71 67.5754 270.242 67.9764C269.768 68.367 269.497 68.9035 269.429 69.5806V73.6014H267.762V65.8931H269.429Z" fill="white"/>
<path d="M279.234 71.8306L279.651 73.1014C279.01 73.4764 278.38 73.6639 277.755 73.6639C277.13 73.6639 276.614 73.4764 276.213 73.1014C275.807 72.7264 275.609 72.1743 275.609 71.4347V67.4347H274.526V66.1847H275.609V64.0806H277.255V66.1847H279.526V67.4347H277.255V71.1222C277.255 71.5129 277.317 71.7837 277.442 71.9347C277.578 72.091 277.797 72.1639 278.088 72.1639C278.39 72.1639 278.776 72.0545 279.234 71.8306Z" fill="white"/>
<path d="M285.332 65.8306C286.384 65.8306 287.28 66.091 288.019 66.6014L287.415 67.8306C286.675 67.3879 285.936 67.1639 285.186 67.1639C284.436 67.1639 284.061 67.4243 284.061 67.9347C284.061 68.1847 284.196 68.3931 284.477 68.5597C284.753 68.716 285.092 68.8462 285.498 68.9556C285.899 69.0701 286.3 69.2004 286.707 69.3514C287.108 69.5077 287.446 69.7472 287.727 70.0806C288.003 70.4139 288.144 70.8462 288.144 71.3722C288.144 72.1118 287.858 72.6795 287.29 73.0806C286.733 73.4712 286.03 73.6639 285.186 73.6639C284.613 73.6639 284.05 73.5754 283.498 73.3931C282.941 73.2004 282.477 72.9295 282.102 72.5806L282.686 71.3931C283.019 71.6847 283.42 71.9243 283.894 72.1014C284.378 72.2681 284.837 72.3514 285.269 72.3514C285.644 72.3514 285.941 72.2889 286.165 72.1639C286.399 72.0285 286.519 71.8201 286.519 71.5389C286.519 71.2472 286.378 71.0181 286.102 70.8514C285.821 70.6743 285.483 70.5285 285.082 70.4139C284.691 70.3045 284.295 70.1795 283.894 70.0389C283.503 69.9035 283.17 69.6639 282.894 69.3306C282.613 68.9972 282.477 68.5754 282.477 68.0597C282.477 67.3254 282.748 66.7681 283.29 66.3931C283.842 66.0181 284.524 65.8306 285.332 65.8306Z" fill="white"/>
</svg>
